<?xml version="1.0" standalone="no"?>
<!DOCTYPE svg PUBLIC "-//W3C//DTD SVG 20010904//EN"
 "http://www.w3.org/TR/2001/REC-SVG-20010904/DTD/svg10.dtd">
<svg version="1.0" xmlns="http://www.w3.org/2000/svg"
 width="700.000000pt" height="700.000000pt" viewBox="0 0 700.000000 700.000000"
 preserveAspectRatio="xMidYMid meet">
<metadata>
Created by potrace 1.14, written by Peter Selinger 2001-2017
</metadata>
<g transform="translate(0.000000,700.000000) scale(0.100000,-0.100000)"
fill="#000000" stroke="none">
<path d="M2897 6284 c-1 -1 -24 -5 -52 -8 -196 -26 -432 -116 -630 -240 -238
-149 -508 -402 -711 -666 -296 -386 -556 -937 -660 -1400 -4 -19 -8 -37 -9
-40 -7 -31 -26 -123 -30 -150 -3 -19 -8 -42 -10 -50 -2 -8 -7 -40 -10 -70 -3
-30 -7 -62 -10 -70 -28 -110 -24 -598 7 -775 5 -33 11 -69 13 -80 33 -218 146
-538 256 -723 26 -43 101 -163 111 -177 136 -184 331 -383 494 -504 195 -145
442 -280 674 -368 95 -37 232 -84 254 -89 11 -2 40 -10 65 -18 98 -30 238 -64
329 -81 15 -3 38 -7 52 -10 13 -2 42 -7 65 -10 22 -3 47 -8 55 -10 20 -5 178
-23 280 -31 55 -4 389 -4 448 1 29 2 74 7 100 10 26 3 69 8 96 11 28 3 53 7
56 9 4 2 29 7 56 10 27 4 67 11 89 17 22 6 51 12 65 15 130 23 470 145 590
212 8 4 44 24 80 43 505 272 906 709 1105 1203 32 79 79 231 91 290 2 11 8 43
14 70 24 125 33 359 18 465 -4 25 -10 65 -14 90 -21 149 -122 383 -222 520
-152 208 -390 382 -674 494 -68 27 -300 96 -321 96 -7 0 -51 12 -100 26 l-87
27 -42 66 c-108 173 -270 349 -429 469 -57 43 -68 64 -109 212 -7 25 -17 59
-22 75 -7 26 -80 322 -93 382 -13 56 -75 225 -108 290 -169 341 -441 478 -935
472 -100 -1 -183 -3 -185 -5z"/>
</g>
</svg>
